<svg xmlns="http://www.w3.org/2000/svg" width="512" height="512" viewBox="0 0 512 512" shape-rendering="crispEdges">
<rect width="512" height="512" fill="#FFF1B8"/><path fill="#F5D565" d="M0 64h512v24H0zM0 424h512v24H0z"/><path fill="none" stroke="#2A1454" stroke-width="36" d="M0 368h144v-96h224v-96h144"/><path fill="none" stroke="#FFF6DC" stroke-width="8" stroke-dasharray="24 20" d="M0 368h144v-96h224v-96h144"/>
<path fill="#2A1454" d="M184 184h176v112H184z"/><path fill="#FF7A3D" d="M208 204h128v64H208z"/><path fill="#9BE7FF" d="M232 216h80v36h-80z"/><path fill="#2A1454" d="M200 288h48v52h-48zm88 0h48v52h-48z"/><path fill="#7C3AED" d="M212 300h24v28h-24zm88 0h24v28h-24z"/><path fill="#FF3CAC" d="M256 164h32v20h-32z"/>
</svg>
